<?xml version="1.0" encoding="utf-8"?>
<!-- Generator: Adobe Illustrator 25.0.0, SVG Export Plug-In . SVG Version: 6.00 Build 0)  -->
<svg version="1.1" id="Calque_1" xmlns="http://www.w3.org/2000/svg" xmlns:xlink="http://www.w3.org/1999/xlink" x="0px" y="0px"
	 viewBox="0 0 2000 2000" style="enable-background:new 0 0 2000 2000;" xml:space="preserve">
<style type="text/css">
	.st0{fill:#FFFFFF;}
</style>
<g>
	<g>
		<path class="st0" d="M189.5,971.2c36.2-165.2,39.7-330.5,19.8-498.9c6.8,0,12.8,0,18.7,0c62.3,0,124.6,0,187,0
			c97.4,0,143.1,40,155.8,136.9c2.8,21.1,4.2,42.4,6.7,63.6c1.1,8.9,1.5,18.5,5.5,26.1c3.8,7.1,11.6,16,18.2,16.4
			c6.6,0.4,16.4-7.1,20.1-13.8c5.5-10,7.3-22.2,9.7-33.6c6.6-31.2,10.6-63.2,19.4-93.8c19.2-66.5,61-99.5,130.1-101.3
			c70.7-1.9,141.5-0.4,212.2-0.4c1.6,0,3.2,0.7,6.3,1.5c-19.6,166.4-16.2,332,20.1,497.4c-101,0-200.7,0-302.6,0
			c3.6-20.3,8.3-39.7,10.3-59.4c5.8-56.3,11.3-112.6,15-169c1-14.5-3.2-30.3-8.6-44.1c-2.8-7.3-13-15.5-20.4-16.1
			c-6.1-0.5-16.9,8.4-18.9,15.2c-6.7,22.4-13.2,45.5-14.7,68.7c-3.9,60.4-5.3,121.1-7.4,181.6c-0.8,24.2-0.5,24.2-23.9,24.2
			c-50.5,0-101.1,0-151.6,0c-4.9,0-9.9-0.5-16.6-0.9c-1.2-36.4-1.7-72.2-3.8-107.9c-2.6-45.3-6.3-90.6-10-135.8
			c-0.6-7.7-3.3-15.4-6-22.7c-4.1-11.2-8.6-23.5-23.1-23.2c-15.2,0.3-21.2,12.9-23.3,25c-3.5,20.9-8,42.6-5.9,63.3
			c6.4,62.4,15.8,124.5,24,186.7c0.6,4.3,0.7,8.7,1.1,14.2C351.4,971.2,270.9,971.2,189.5,971.2z"/>
		<path class="st0" d="M1248.4,1099c92.4,0,183.1,0,275.5,0c-28,166.3-20.8,331.6,0.2,498c-107.2,0-213.5,0-321.2,0
			c-1.9-52.2-3.1-103.8-6-155.2c-1.3-23.4-4.9-46.8-9.6-69.8c-3-14.6-7.7-30.7-27-31.9c-13.8-0.9-26.9,11.8-28.5,34.3
			c-2.3,32.2-3.1,65.1,0.7,97.1c5,42.1,15,83.7,23,126c-99.9,0-200.2,0-301.9,0c19.4-82.5,28.1-165.4,31.6-249
			c3.5-83.1-0.6-165.7-11.4-250.4c7.4,0,13.4,0,19.4,0c48.8,0,97.7,0,146.5,0c103.4,0,185.7,75.3,195.3,178.4
			c1.7,18.4,3.4,36.9,7,55c2.1,10.7,5.9,22.6,12.9,30.4c6.2,6.8,18.3,12.3,27,11.4c6.2-0.7,15.1-12.7,15.8-20.3
			c1.8-18.7,2.4-38.5-1.6-56.7c-12.9-58.6-28.2-116.6-42.5-174.9C1251.8,1114.4,1250.3,1107.4,1248.4,1099z"/>
		<path class="st0" d="M501.5,1078.8c47.8,1.8,94.3,8,139.1,24.3c106.3,38.7,168.6,126.1,168.1,239.3
			c-0.5,98.4-38.3,177.8-125.7,228.9c-44.9,26.3-94.4,37.9-145.9,41.8c-62.4,4.7-123.3-1.2-181.9-24.3
			c-122.1-48.2-171.2-159.2-160.7-273.2c11.5-124.4,97.8-203.6,218.6-226.6C442.2,1083.6,472.1,1082.2,501.5,1078.8z M448.2,1260.6
			c5.8,19.7,8,37.5,16,52.1c17.7,32.5,55.4,31.3,73.8-0.8c17.3-30.2,13.5-86-7.9-113.9c-18-23.5-44.1-24.2-59.2,1.4
			C460.1,1218.1,455.5,1240.4,448.2,1260.6z"/>
		<path class="st0" d="M1372.2,990.6c-45.3-0.8-89.6-6.8-132.5-21.6c-113.1-39.1-180.4-138-174.8-257.5
			c6.3-135.1,89.4-226.3,227.3-249c72-11.9,143.3-9.7,212.9,13.5c123.6,41.3,191.5,152.4,172.7,281.4
			C1659.4,884,1570.5,969,1439.2,984.9C1417,987.6,1394.5,988.7,1372.2,990.6z M1339.7,551.4c-55.1,3.3-109.7,68.3-111.6,132.8
			c-2.2,74,52.4,138.9,124.5,148.1c61.7,7.9,134.6-31.1,144.8-77.5C1385.2,768.8,1296.5,665,1339.7,551.4z"/>
		<path class="st0" d="M1706.6,1616c-17.2-2.2-39.7-3.6-61.5-8.2c-43.2-9.1-65.6-35.1-69.9-79.1c-1.1-11.7-1.2-23.6,0-35.3
			c5.1-51.9,29.8-78.9,81.5-87.8c42.3-7.3,85-8.1,126.7,3.9c39.6,11.4,60.6,38,64.5,79c7.8,81.4-19.7,115.4-100.9,124.3
			C1735.3,1614.1,1723.6,1614.7,1706.6,1616z"/>
	</g>
</g>
</svg>
